<svg width="64" height="64" viewBox="0 0 64 64" fill="none" xmlns="http://www.w3.org/2000/svg">
  <defs>
    <linearGradient id="pageGradient" x1="0" y1="0" x2="64" y2="64" gradientUnits="userSpaceOnUse">
      <stop stop-color="#E0F2FE" /> <stop offset="1" stop-color="#BAE6FD" />
    </linearGradient>
    <linearGradient id="photoGradient" x1="32" y1="24" x2="48" y2="40" gradientUnits="userSpaceOnUse">
      <stop stop-color="#FDBA74" /> <stop offset="1" stop-color="#FB923C" />
    </linearGradient>
  </defs>

  <path d="M10 12H32V52H10C7.79086 52 6 50.2091 6 48V16C6 13.7909 7.79086 12 10 12Z" fill="#1E40AF" stroke="#1D4ED8" stroke-width="2"/>
  <path d="M32 12H54C56.2091 12 58 13.7909 58 16V48C58 50.2091 56.2091 52 54 52H32V12Z" fill="#2563EB" stroke="#1D4ED8" stroke-width="2"/>
  <rect x="10" y="16" width="22" height="32" fill="url(#pageGradient)" stroke="#3B82F6" stroke-width="1"/>
  <rect x="32" y="16" width="22" height="32" fill="url(#pageGradient)" stroke="#3B82F6" stroke-width="1"/>
  
  <rect x="31" y="12" width="2" height="40" fill="#1D4ED8" />

  <rect x="26" y="20" width="22" height="26" fill="#F8FAFC" stroke="#E2E8F0" stroke-width="1" transform="rotate(-5 37 33)"/>
  <rect x="28.5" y="24" width="17" height="17" fill="url(#photoGradient)" stroke="#FED7AA" stroke-width="0.5" transform="rotate(-5 37 33)"/>
  
  <circle cx="35" cy="29" r="2" fill="#F97316" transform="rotate(-5 37 33)"/>
  <path d="M29 39L33 33L37 37" fill="none" stroke="#F97316" stroke-width="1" stroke-linecap="round" transform="rotate(-5 37 33)"/>
</svg>